<?xml version="1.0" encoding="utf-8"?>
<!-- Generator: Adobe Illustrator 21.0.2, SVG Export Plug-In . SVG Version: 6.00 Build 0)  -->
<svg version="1.1" id="cdr_x5F_object" xmlns="http://www.w3.org/2000/svg" xmlns:xlink="http://www.w3.org/1999/xlink" x="0px"
	 y="0px" viewBox="0 0 217 242.1" style="enable-background:new 0 0 217 242.1;" xml:space="preserve">
<style type="text/css">
	.st0{fill-rule:evenodd;clip-rule:evenodd;fill:#E30613;}
	.st1{fill-rule:evenodd;clip-rule:evenodd;fill:#F9B000;}
	.st2{fill-rule:evenodd;clip-rule:evenodd;fill:#FFFFFF;}
</style>
<g>
	<g>
		<path class="st0" d="M159.8,146.6c0.6-0.9,1.2-1.9,1.8-2.8c0.6-1,1.1-2,1.7-2.9c0.5-1,1-2,1.5-3.1c0.5-1.1,0.9-2.1,1.4-3.2
			c0.4-1.1,0.8-2.2,1.2-3.3c0.4-1.1,0.7-2.3,1.1-3.4c0.3-1.2,0.6-2.4,0.9-3.6c0.2-1.2,0.5-2.4,0.7-3.7c0.2-1.3,0.4-2.5,0.6-3.8
			c0.1-1.3,0.3-2.6,0.4-3.9c0.1-1.3,0.2-2.7,0.2-4c0-1.4,0.1-2.7,0.1-4.1c0-1.4-0.1-2.8-0.1-4.2c-0.1-1.4-0.2-2.9-0.3-4.3
			c-0.2-1.5-0.3-2.9-0.5-4.4c-0.2-1.5-0.4-2.9-0.6-4.4c-0.3-1.5-0.5-2.9-0.8-4.4c-0.3-1.4-0.6-2.9-0.9-4.3c-0.3-1.4-0.7-2.9-1-4.3
			c-0.4-1.4-0.7-2.8-1.1-4.2c-0.4-1.4-0.8-2.8-1.2-4.2c-0.4-1.4-0.9-2.7-1.3-4.1c-0.5-1.3-1-2.7-1.4-4c-0.5-1.3-1-2.6-1.5-3.9
			c-0.5-1.3-1.1-2.6-1.6-3.9c-0.6-1.3-1.1-2.5-1.7-3.8c-0.6-1.2-1.2-2.4-1.8-3.7c-0.6-1.2-1.2-2.4-1.9-3.6c-0.6-1.1-1.3-2.3-1.9-3.4
			c-0.7-1.1-1.3-2.2-2-3.3c-0.7-1.1-1.4-2.1-2.1-3.2c-0.7-1-1.4-2-2.1-3c-0.7-1-1.4-1.9-2.2-2.9c-0.7-0.9-1.5-1.8-2.2-2.8
			c-0.7-0.9-1.5-1.7-2.2-2.6c-0.8-0.8-1.5-1.6-2.3-2.4c-0.8-0.8-1.5-1.5-2.3-2.3c-0.8-0.7-1.6-1.4-2.3-2.1
			c-20-18.4-44.7-13.1-61.6,6.8c-0.7,0.9-1.5,1.7-2.2,2.6c-0.7,0.9-1.5,1.8-2.2,2.8c-0.7,1-1.4,1.9-2.2,2.9c-0.7,1-1.4,2-2.1,3
			c-0.7,1.1-1.4,2.1-2.1,3.2c-0.7,1.1-1.3,2.2-2,3.3c-0.6,1.1-1.3,2.3-1.9,3.4c-0.6,1.2-1.2,2.4-1.9,3.6c-0.6,1.2-1.2,2.4-1.8,3.7
			c-0.6,1.3-1.1,2.5-1.7,3.8c-0.5,1.3-1.1,2.6-1.6,3.9c-0.5,1.3-1,2.6-1.5,3.9c-0.5,1.3-1,2.7-1.4,4c-0.4,1.4-0.9,2.7-1.3,4.1
			c-0.4,1.4-0.8,2.8-1.2,4.2c-0.4,1.4-0.7,2.8-1.1,4.2c-0.3,1.4-0.7,2.9-1,4.3c-0.3,1.4-0.6,2.9-0.9,4.3c-0.3,1.5-0.5,2.9-0.8,4.4
			c-0.2,1.5-0.4,2.9-0.6,4.4c-0.2,1.5-0.3,2.9-0.5,4.4c-0.1,1.4-0.2,2.9-0.3,4.3c0,1.4-0.1,2.8-0.1,4.2c0,1.4,0,2.7,0.1,4.1
			c0.1,1.3,0.2,2.7,0.2,4c0.1,1.3,0.3,2.6,0.4,3.9c0.2,1.3,0.4,2.5,0.6,3.8c0.2,1.2,0.5,2.4,0.7,3.7c0.3,1.2,0.6,2.4,0.9,3.6
			c0.4,1.1,0.7,2.3,1.1,3.4c0.4,1.1,0.8,2.2,1.2,3.3c0.5,1.1,0.9,2.1,1.4,3.2c0.5,1,1,2,1.5,3.1c0.6,1,1.1,2,1.7,2.9
			c0.6,0.9,1.2,1.9,1.8,2.8c0.6,0.9,1.3,1.8,1.9,2.7c0.7,0.8,1.4,1.7,2.1,2.5c0.7,0.8,1.5,1.6,2.2,2.4c0.8,0.8,1.6,1.5,2.3,2.3
			c0.8,0.7,1.6,1.4,2.5,2.1c0.9,0.7,1.7,1.3,2.6,2c0.9,0.6,1.8,1.2,2.7,1.8c0.9,0.5,1.9,1.1,2.8,1.6c1,0.5,2,1,2.9,1.5
			c1,0.4,2,0.9,3,1.3c1,0.4,2.1,0.8,3.1,1.2c1.1,0.3,2.2,0.7,3.2,1c1.1,0.3,2.2,0.5,3.3,0.8c0.9,0.2,1.8,0.3,2.6,0.5
			c-0.9,0.1-1.8,0.1-2.7,0.2c-1.5,0.1-2.9,0.1-4.4,0.2c-1.4,0-2.9,0.1-4.3,0.1c-1.4,0-2.8,0-4.2,0.1c-1.4,0-2.7,0-4.1,0
			c-1.3,0-2.6,0-4-0.1c-1.3,0-2.6-0.1-3.9-0.1c-1.2-0.1-2.5-0.1-3.7-0.2c-1.2-0.1-2.4-0.2-3.6-0.3c-11.3-1.1-22-3.1-32.5-7.6
			c-0.8-0.4-1.5-0.7-2.3-1.1c-0.7-0.4-1.4-0.8-2.2-1.1c-0.7-0.4-1.4-0.8-2.1-1.2c-0.6-0.4-1.3-0.8-1.9-1.3c-0.6-0.4-1.2-0.9-1.8-1.3
			c-0.6-0.5-1.2-0.9-1.7-1.4c-0.5-0.5-1.1-1-1.6-1.5c-0.5-0.5-1-1-1.5-1.5c-0.8-0.9-1.7-1.9-2.5-2.8c0.2,1.2,0.3,2.4,0.5,3.7
			c0.1,0.7,0.2,1.4,0.3,2.1c0.1,0.7,0.2,1.5,0.3,2.2c0.1,0.8,0.2,1.5,0.4,2.3c0.1,0.8,0.3,1.5,0.4,2.3c0.1,0.8,0.3,1.6,0.4,2.4
			c2.5,13.6,5.4,27.2,9.7,40.4c0.2,0.7,0.4,1.3,0.7,2c0.2,0.6,0.4,1.2,0.7,1.9c0.2,0.6,0.4,1.2,0.7,1.8c3.7,9.2,9.2,14.4,19.1,16.1
			c0.4,0,0.7,0.1,1.1,0.1c9.6,1,19-0.9,28.4-2.3c0.5-0.1,1-0.1,1.5-0.2c0.5-0.1,1-0.1,1.5-0.2c27.7-3.9,64.8-5.6,92.6-2.1
			c1.3,0.2,2.6,0.4,3.9,0.5c1.3,0.2,2.5,0.4,3.8,0.6c13.1,2.2,26.2,5.1,38.2,11.1c0.7,0.4,1.3,0.7,2,1.1c0.6,0.4,1.2,0.8,1.9,1.1
			c0.6,0.4,1.1,0.8,1.7,1.2c0.5,0.4,1,0.8,1.6,1.2c0.5,0.4,0.9,0.8,1.4,1.2c0.9,0.9,1.7,1.7,2.6,2.6c-0.4-1.3-0.7-2.6-1.1-3.9
			c-0.2-0.7-0.4-1.4-0.6-2.1c-0.2-0.7-0.4-1.4-0.6-2.1c-5.1-17.2-11.1-34.3-19.2-50.3c-0.1-0.2-0.3-0.5-0.4-0.7
			c-0.1-0.2-0.3-0.5-0.4-0.7c-0.2-0.2-0.3-0.5-0.5-0.7c-0.2-0.2-0.3-0.5-0.5-0.7c-0.2-0.2-0.3-0.5-0.5-0.7c-0.2-0.2-0.3-0.5-0.5-0.7
			c-12.6-16.1-46.6-11.6-63.8-10.6c10.1-3.1,19.7-9.4,26.8-17.1c0.7-0.8,1.4-1.7,2.1-2.5C158.5,148.4,159.1,147.5,159.8,146.6z"/>
		<path class="st1" d="M53,173.3c14.2,0,62.2-3.9,94.8-2.7c23.4,0.8,38.8,3.7,44.8,18.6l16.9,41.7c-21.7-19.1-143.3-9-166.3-9
			c-25.6,0.7-29.9-41.1-34.2-59.8C18.4,172.9,42.7,173.3,53,173.3z"/>
		<path class="st1" d="M53,173.3c14.2,0,62.2-3.9,94.8-2.7c23.4,0.8,38.8,3.7,44.8,18.6l16.9,41.7c-21.7-19.1-143.3-9-166.3-9
			c-25.6,0.7-29.9-41.1-34.2-59.8C18.4,172.9,42.7,173.3,53,173.3z"/>
		<path class="st0" d="M58.8,187.4h-16v26.3c-3.1-0.1-9.2-5.9-9.2-14.1v-22.4c2,2,7.2,1.8,15.1,1.8
			C57.4,178.9,58.5,185.1,58.8,187.4z"/>
		<path class="st0" d="M86.3,213.7c-1.8-1.5-4.7-2.8-7.2-1.6c-5.6,2.5-10.2,2.8-14.6,2.7c-6.5-0.1-14.7-7.4-9.2-16
			c2.2-3.4,6-5.8,12.5-5.6c-4.2,2.1-5.9,7.7-3.2,10.3c2.6,2.4,8.8,1.1,7.5-2.7L67.4,187c-1.8-5.5-6.7-7-9.1-7.7
			c11.4-1.5,16.3,1.7,18.3,7.1L86.3,213.7z"/>
		<path class="st0" d="M107.9,200.6H97.3v13.1h-9.2v-23.9v-10.7c3.1,0,9.2,1.5,9.2,6.3v6.8h1.4C104.5,192.2,107.9,197.8,107.9,200.6
			z"/>
		<path class="st0" d="M118,213.7h-9.2v-34.6c3.1,0,9.2,1.5,9.2,6.3C118,201.8,118,195,118,213.7z"/>
		<path class="st0" d="M141.8,200.6h-10.6v13.1h-9.2v-23.9v-10.7c3.1,0,9.2,1.5,9.2,6.3v6.8h1.4
			C138.4,192.2,141.8,197.8,141.8,200.6z"/>
		<path class="st0" d="M151.8,213.7h-9.2v-34.6c3.1,0,9.2,1.5,9.2,6.3C151.8,201.8,151.8,195,151.8,213.7z"/>
		<path class="st0" d="M187.4,213.7c-1.8-1.5-4.7-2.8-7.2-1.6c-5.6,2.5-10.2,2.8-14.6,2.7c-6.5-0.1-14.7-7.4-9.2-16
			c2.2-3.4,6-5.8,12.5-5.6c-4.2,2.1-5.9,7.7-3.2,10.3c2.6,2.4,8.8,1.1,7.5-2.7l-4.7-13.7c-1.8-5.5-6.7-7-9.1-7.7
			c11.4-1.5,16.3,1.7,18.3,7.1L187.4,213.7z"/>
		<path class="st1" d="M104.5,171.1c39.8,0,65.2-31.9,59.4-79.1C158,44.8,128.6,1.8,104.5,1.8S51,44.8,45.1,92
			C39.3,139.3,64.7,171.1,104.5,171.1z"/>
		<path class="st2" d="M83.4,95.2c-4.5,13,10.1,17.2,12.3,5.8c2.9,11.6,10.7,9.2,12.8,1c3.1,8.6,7.7,6.2,8.5-1.3
			c-1.8,1.8-4.9,5.1-7.9-3.1c-5.6,8.4-10.3,5.1-13.2-1.4C94.3,100,87.6,107.1,83.4,95.2z"/>
		<path class="st2" d="M86.9,107.8c-2.3,13.9,11,18.1,14.3,4.8c0.3,7.5,10.3,11.5,12.3-1c1.9,10.2,9.8,8.4,9.7,1.1
			c-2.6,2.7-6.8,2.3-9.7-5c-1.3,3.3-5,11.2-12,1.6C93.7,119.4,88.8,111.3,86.9,107.8z"/>
		<path class="st2" d="M77.9,120.5c0.4,12.6,11.8,14.2,14.6,4c3.7,11.8,15,9.5,15.5-0.8c3.8,9.2,15.8,10.3,16.5-5.1
			c6.4,14.7,18.3,8,14.9-4c-0.2,9.7-12,7.8-15.1,0.4c-1.6,4.5-5.7,16-16.6,4.8c-3,5.9-6.9,11.9-14.8,1.3
			C89.8,126.1,83,128.8,77.9,120.5z"/>
		<path class="st2" d="M70.9,124.5c-7.6,1.5-8.6-6.3-8.5-10.6c-1.8,3.5-2.6,6.1-2.3,10.6c0.2,4.5,5.9,6.9,9.7,2.2
			c-1.6,10.9,6.5,17.4,13.9,8.3c0.4,12.6,15.9,13.6,17.4,1.5c3.7,12.1,16.9,11.4,17.1-1.6c8,12.5,18,7.5,18.3-4.3
			c10.8,12.3,17.2-2.2,8.8-13.5c1.9,8.3,0.5,16.4-10,10.5c-1.7,7.7-11.1,12-17.7,3.3c-2.4,7.4-9.4,13.5-16.5,2.2
			c-3.6,6-10.6,11.2-16.6-1.5C78,137.4,72.2,132.7,70.9,124.5z"/>
		<path class="st2" d="M66,131.4c-8.9,6.4-8,1-7.1-4.9c-4.1,8.1-2.1,16.8,5.9,8.1c-2.7,11.3,4.9,16.6,10.3,8.1
			c-0.2,11.6,9.4,17,16.6,6.6c3.5,11,17.1,10.3,20-0.1c5.3,10.9,18.7,7.7,19.6-3.5c9.7,9.8,18.7,1.3,13.8-9.2
			c-1.3,7.4-6.7,12.2-14.6,5.8c-4.2,8.2-12.6,10.7-19.1,3.2C109,150.5,97.8,157,92,145c-3.2,4.8-11.9,7.9-16.3-5.5
			C69.5,144.2,65.9,139.2,66,131.4z"/>
		<path class="st0" d="M77.5,42.6c-1.4,1.9-5.1,3.5-4.7-0.5c-8.6,0-4.2-7.4,0.4-7.8c-4.5-0.9-3.3-5.7,5.9-5.2
			c0.4-1.7,1.1-2.2,2.9-2.3c1.6-0.1,2.9-0.1,4.6,0.8c-4.7,2.7-7,5.4-8.9,9C76.4,38.8,75.6,41.7,77.5,42.6z"/>
		<path class="st0" d="M77.5,43.3c-2.1,2.8-3,6.5-3.3,13.7c3.9-3.2,5.7-3.8,8.8-7.7C79.7,48.6,78.3,46.4,77.5,43.3z"/>
		<ellipse class="st0" cx="85.3" cy="41.8" rx="2" ry="2.2"/>
		<path class="st2" d="M102.6,54.6c3.9,5.3,6.9,22.8,7.5,26.9c0.5,3.1,0.9,7-1.5,7.2c-2.9,0.3-2.5-3.1-2.6-6.3
			C105.8,79,104.7,61.6,102.6,54.6z"/>
		<path class="st2" d="M119.3,84.4c0.7,13.2,3.6,20.6,9.4,25.2c2.9,2.3,6.9,1.3,4.8-1c-2.8-3.1-7.9-8.3-6.1-17.7
			c1.9,8.6,7.4,14,12,16.7c4.3,2.5,4.2,0.5,3.3-1.4c-1.6-3.4-3.9-4.8-8-8.9c5.5,2.3,9.5,4.6,11.6,8.5c3.1,5.8-2,11.2-7.8,6.7
			c-0.1,3.8-3.3,7.7-13,0.5C118.7,108,115.7,97,119.3,84.4z"/>
		<path class="st2" d="M88.8,28.1c15.6,2.3,23.1,37.9,23.8,54c0.3,6.7,0,9.6-3.3,10.1c-5,0.8-5.9-5.9-6.7-10.3
			c-0.4,3.9-0.9,9.7-5.9,9.3c-5-0.4-4.1-5.8-4.2-10c-1,3.8-3.7,10.1-7,9.3c-2-0.5-2.9-1.8-1.6-6.3c1.4-4.8,4.5-11.2,2.8-17.5
			c0,7.4-4.6,12.2-6.2,17.7c-1.4,5-0.1,9,3.2,10.1c2.6,0.8,5.2-0.5,7.2-3.5c1,2.8,2.5,4.6,5.2,4.9c2.5,0.2,4.6-0.1,6.6-3.5
			c1.8,4.3,5.1,4.8,7.5,4.5c7.1-1.1,7.3-8.9,6.5-15.1C114.3,64.4,107.6,30.3,88.8,28.1z"/>
		<path class="st2" d="M78.5,84.5c-1.1,9,3.5,17.7,6.7,26.8c2.5,7-5.8,10.8-9.4,6.1c0.9,7-7.3,7.5-9.9,2.5
			c-4.2-9.6-3.4-17.8,0.9-25.1c-2.5,7.5-0.5,18.5,1.8,21.9c1.5,2.2,3.7,0.7,2.9-2.3c-1.6-5.9-4.2-18.1,1.2-25
			c-1.7,11.9-0.2,16.5,2.7,22.9c4.2,6,6.5,1.3,4.8-2.7C77.6,103.3,74.1,93.1,78.5,84.5z"/>
		<path class="st2" d="M146.1,115.8c8.2-3.5,14.1-14.5,12.9-26.7c-0.6-6.2-3.6-9.8-7.4-4.9c-0.8-12.8-8-14.7-11.4-4.3
			c-1.4-2.9-4.5-3.1-5.2,0.3c-0.7,3.3,0.1,6.9-2.9,12.6c3.7-2.8,3.7-6.7,5.3-6.1c2.6,1,1.2,6.4,0.3,10.1c2.7-2.5,4.1-6,5.3-10
			c1.3-4.4,4.3-2.7,4.5,1.4c0.2,4.2-1,8.3-3.1,13.3c3.3-2.5,4.8-4.5,5.4-6c1.7-4,4.9-3.2,4.4,1.9
			C153.8,101.3,152.1,111.1,146.1,115.8z"/>
		<path class="st2" d="M97.3,62.6c2.8,7.8,2.9,15,2.8,19.2c-0.1,3.4-0.2,7.2-3.2,6.8c-2.5-0.4-1.7-3.9-1.1-6.9
			C96.3,78.2,98,72.7,97.3,62.6z"/>
		<path class="st2" d="M90.7,67.7c1.5,6.4,0.2,12.2-1,15.5c-1,2.5-1.1,5.5-3.2,4.7c-2.3-0.8-1-2.9,0-5.1
			C87.7,80.3,90.3,75.2,90.7,67.7z"/>
		<path class="st0" d="M85.1,49.3c-7.9,7.4-3.8,16.1,1.4,16c5.6-0.1,5-10.8,1.6-14c2.3-0.1,4.5-1.8,4-5.7
			C89.9,49.1,87.7,49.5,85.1,49.3z"/>
		<path class="st2" d="M85.1,47.8c4.7-0.5,6.9-8.2,4.3-10.9c-1.6-1.6-5.4-0.4-8.3,2.6C78.3,42.2,79.4,48.3,85.1,47.8z M82.3,46.1
			c1.3,0.9,3.6-0.1,4.9-2c1.3-2,1.1-4.4-0.1-5.4c-1.3-0.9-3.5-0.1-4.7,1.8C81,42.5,81,45.2,82.3,46.1z"/>
	</g>
</g>
</svg>
