<svg width="386" height="363" viewBox="0 0 386 363" fill="none" xmlns="http://www.w3.org/2000/svg">
<path fill-rule="evenodd" clip-rule="evenodd" d="M193.534 129.801C134.585 129.801 86.7791 108.153 86.7791 81.4581C86.7791 70.4418 94.9206 60.285 108.627 52.1543C94.8571 58.3274 83.7111 65.9998 76.1598 74.6739C69.1161 82.7651 65.2002 91.7278 65.2002 101.158C65.2002 121.332 83.1205 139.365 111.247 151.305C111.941 226.238 144.536 327.29 185.653 335.663C187.899 335.749 190.158 335.792 192.427 335.792C193.678 335.792 194.927 335.779 196.172 335.753C237.331 328.136 270.053 229.002 270.984 152.214C300.368 140.292 319.223 121.851 319.223 101.158C319.223 90.6962 314.403 80.81 305.841 72.0509C301.254 67.9345 296.412 64.0655 291.339 60.4664C289.608 59.3607 287.808 58.2846 285.943 57.2398C295.066 64.3614 300.289 72.6341 300.289 81.4581C300.289 108.153 252.484 129.801 193.534 129.801Z" fill="#E93B3A"/>
<path fill-rule="evenodd" clip-rule="evenodd" d="M28.6012 182.593C28.6012 140.5 46.7646 102.367 76.1598 74.674C83.7111 65.9999 94.8571 58.3275 108.627 52.1544C108.628 52.1541 108.628 52.1536 108.629 52.1535C128.136 40.5824 158.913 33.1155 193.534 33.1155C225.1 33.1155 253.471 39.3228 273.017 49.1883C275.497 50.44 277.836 51.7507 280.02 53.1151C283.907 55.4196 287.683 57.8729 291.339 60.4665C296.93 64.0386 301.802 67.9194 305.841 72.051C336.909 99.9332 356.252 139.155 356.252 182.593C356.252 266.018 284.906 333.89 196.172 335.753C194.501 336.062 192.817 336.22 191.12 336.22C189.283 336.22 187.459 336.031 185.653 335.663C98.3295 332.34 28.6012 265.066 28.6012 182.593ZM33.9236 283.883C36.0333 286.762 38.2315 289.583 40.5151 292.343C40.475 292.294 40.4348 292.246 40.3949 292.197C38.1561 289.487 35.9976 286.714 33.9236 283.883ZM385.902 178.418C385.898 178.192 385.893 177.966 385.888 177.74C385.881 177.394 385.872 177.049 385.863 176.704C385.879 177.274 385.892 177.846 385.902 178.418ZM68.1577 319.449C68.1759 319.464 68.1942 319.478 68.2123 319.493C68.2143 319.495 68.2163 319.496 68.2193 319.498C68.2253 319.503 68.2311 319.507 68.237 319.512C68.2703 319.538 68.3035 319.565 68.3368 319.592C68.3711 319.619 68.4053 319.646 68.4396 319.673C68.5283 319.743 68.6169 319.814 68.7057 319.884C79.9522 328.784 92.2947 336.498 105.515 342.822C105.559 342.843 105.602 342.864 105.646 342.885C92.1683 336.446 79.598 328.563 68.1582 319.449C68.1764 319.464 68.1947 319.478 68.2128 319.493C68.2148 319.495 68.2168 319.496 68.2198 319.498C68.1994 319.482 68.1791 319.465 68.1587 319.449L68.1577 319.449ZM118.524 348.485C137.299 355.867 157.579 360.541 178.81 361.987C178.807 361.987 178.804 361.987 178.801 361.987C178.788 361.986 178.775 361.986 178.762 361.984C157.548 360.534 137.285 355.861 118.525 348.485L118.524 348.485ZM68.1212 319.42C68.1322 319.429 68.1432 319.438 68.1542 319.447C68.1552 319.448 68.1562 319.449 68.1582 319.45C68.1786 319.466 68.1989 319.482 68.2193 319.498C83.1421 331.387 100.014 341.184 118.321 348.405C118.366 348.423 118.412 348.441 118.457 348.459C118.461 348.461 118.465 348.462 118.469 348.464C118.484 348.47 118.498 348.475 118.513 348.481C138.067 356.171 159.255 360.923 181.45 362.151C184.044 362.293 186.651 362.388 189.271 362.435C190.499 362.457 191.73 362.468 192.964 362.468L193.142 362.468C299.534 362.378 385.8 281.375 385.929 181.457V181.234C385.928 180.34 385.92 179.447 385.904 178.556C385.526 155.943 380.73 134.354 372.288 114.492C372.268 114.445 372.249 114.399 372.229 114.352C372.189 114.258 372.149 114.165 372.109 114.071C372.09 114.026 372.07 113.981 372.051 113.936C364.955 97.3941 355.329 82.0609 343.623 68.3584C343.594 68.3246 343.565 68.291 343.536 68.2573C308.168 26.927 253.855 0.446289 192.964 0.446289C86.4904 0.446289 0.1288 81.3836 0 181.234C0 181.308 0 181.383 0 181.457C0.007 186.599 0.241398 191.69 0.695198 196.723C1.3649 204.151 2.5118 211.451 4.1062 218.596C4.2397 219.191 4.3757 219.785 4.5148 220.379C4.5385 220.479 4.5623 220.581 4.586 220.681C9.9841 243.486 19.9953 264.837 33.8077 283.725C33.8464 283.778 33.8852 283.831 33.9241 283.884C33.9403 283.906 33.9566 283.928 33.9728 283.95C36.0329 286.757 38.1752 289.507 40.3954 292.198C40.4364 292.246 40.4765 292.294 40.5156 292.343C48.5939 302.104 57.7105 311.069 67.71 319.091C67.8333 319.19 67.9567 319.289 68.0802 319.388C68.0941 319.398 68.1079 319.41 68.1217 319.421L68.1212 319.42Z" fill="#E93B3A"/>
</svg>
